<svg id="Camada_1" xmlns="http://www.w3.org/2000/svg" viewBox="0 0 356.79 61.63">
    <path d="M328.45,49.92c-11.1,0-20.22-9.57-20.22-21.92,0-9.74,5.5-16.14,13.99-16.14,11.1,0,20.17,9.57,20.17,21.92,0,9.74-5.44,16.14-13.94,16.14m-244.43,0c-11.1,0-20.22-9.57-20.22-21.92,0-9.74,5.44-16.14,13.93-16.14,11.16,0,20.22,9.57,20.22,21.92,0,9.74-5.44,16.14-13.93,16.14m181.61,2.78h24.64l.51-2.27h-19.37V9.08h-5.78V52.7Zm-43.39,0h24.64l.45-2.27h-19.32V9.08h-5.78V52.7Zm-47.98,0h25.15l.4-2.27h-19.94V30.43h16.14l.45-2.32h-16.6V11.34h19.09l.45-2.27h-20.62l-4.53,3.17V52.7Zm-50.59,0h5.61V11.12h6.68c6.51,0,10.76,3.74,10.76,10.2,0,6-4.02,9.06-13.37,10.2v.34l15.92,20.85h6.8l-16.2-20.68c7.08-1.81,12.58-5.89,12.58-11.95,0-6.63-6-10.99-14.84-10.99h-9.4l-4.53,3.17V52.7Zm200.75,.34c12.29,0,23.17-10.59,23.17-22.83s-9.35-21.47-21.36-21.47c-12.35,0-23.17,10.59-23.17,22.83,0,11.67,9.35,21.47,21.36,21.47m-244.43,0c12.29,0,23.17-10.59,23.17-22.83s-9.35-21.47-21.36-21.47c-12.35,0-23.17,10.59-23.17,22.83,0,11.67,9.35,21.47,21.36,21.47m-50.13,0c5.55,0,10.82-1.93,13.99-4.93l-.45-.62c-2.72,1.81-5.27,2.61-9.06,2.61-10.88,0-19.88-9.8-19.88-22.32,0-10.2,5.61-16.03,13.37-16.03,4.47,0,8.1,1.59,10.48,4.02l4.48-4.47c-3.23-1.76-6.51-2.55-10.65-2.55-12.12,0-22.94,10.59-22.94,23.22,0,11.84,9.23,21.07,20.68,21.07"/>
</svg>