<svg width="24" height="24" viewBox="0 0 24 24" fill="none" xmlns="http://www.w3.org/2000/svg">
<path d="M22.4219 8.78851C22.4219 10.2551 21.8767 11.6656 20.8987 12.7425L20.7879 12.8566L11.8011 22.1303L2.8028 12.858L2.80202 12.8572C1.75687 11.7668 1.17188 10.3078 1.17188 8.78851C1.17188 7.26903 1.75703 5.80982 2.80247 4.71937C3.31344 4.18895 3.92424 3.76755 4.59871 3.47987C5.27327 3.19214 5.99795 3.04395 6.72997 3.04395C7.46198 3.04395 8.18668 3.19214 8.86125 3.47987C9.53582 3.7676 10.1467 4.18909 10.6577 4.71964L10.6587 4.72065L11.5322 5.62068L11.8026 5.89938L12.0717 5.61931L12.936 4.71962C13.447 4.18916 14.058 3.76757 14.7325 3.47987C15.4071 3.19214 16.1318 3.04395 16.8638 3.04395C17.5958 3.04395 18.3205 3.19214 18.995 3.47987C19.6694 3.76749 20.2807 4.18936 20.7915 4.71962C21.8368 5.81007 22.4219 7.26915 22.4219 8.78851Z" stroke="white" stroke-width="0.75"/>
</svg>
